<?xml version="1.0" encoding="UTF-8"?>
<!DOCTYPE svg PUBLIC "-//W3C//DTD SVG 1.0//EN" "http://www.w3.org/TR/2001/REC-SVG-20010904/DTD/svg10.dtd">
<!-- Creator: CorelDRAW 2021 (64-Bit) -->
<svg xmlns="http://www.w3.org/2000/svg" xml:space="preserve" width="159.822mm" height="159.822mm" version="1.0" style="shape-rendering:geometricPrecision; text-rendering:geometricPrecision; image-rendering:optimizeQuality; fill-rule:evenodd; clip-rule:evenodd"
viewBox="0 0 15815.22 15815.22"
 xmlns:xlink="http://www.w3.org/1999/xlink"
 xmlns:xodm="http://www.corel.com/coreldraw/odm/2003">
 <defs>
  <style type="text/css">
   <![CDATA[
    .str0 {stroke:#2B2A29;stroke-width:19.79;stroke-miterlimit:22.9256}
    .fil0 {fill:#5F32FF}
    .fil1 {fill:white;fill-rule:nonzero}
   ]]>
  </style>
 </defs>
 <g id="Layer_x0020_1">
  <metadata id="CorelCorpID_0Corel-Layer"/>
  <path class="fil0 str0" d="M7907.61 9.9c4361.79,0 7897.72,3535.93 7897.72,7897.72 0,4361.79 -3535.93,7897.72 -7897.72,7897.72 -4361.79,0 -7897.72,-3535.93 -7897.72,-7897.72 0,-4361.79 3535.93,-7897.72 7897.72,-7897.72z"/>
  <g id="_2654485670560">
   <path class="fil1" d="M6166.29 8944.37c-165.04,-170.91 -269.4,-385.51 -301.76,-620.6l-2.08 -14.64c-31.09,-237.77 13.92,-474.06 130.17,-683.75l639.36 -1153.43 0 -2785.77c0,-584.6 -473.92,-1058.51 -1058.51,-1058.51l0 0c-584.62,0 -1058.53,473.92 -1058.53,1058.51l0 8634.42c0,584.62 473.92,1058.53 1058.53,1058.53l0 0c584.6,0 1058.51,-473.92 1058.51,-1058.53l0 -2894.01 -465.68 -482.23z"/>
   <path class="fil1" d="M12260.13 11579.76l-3683.45 -3814.33 1980.47 -3572.89c283.42,-511.3 98.7,-1155.56 -412.62,-1438.99 -511.31,-283.42 -1155.55,-98.68 -1439,412.62l-2358.41 4254.72c-114.04,205.75 -152.15,432.99 -123.82,649.63 0.17,1.31 0.28,2.64 0.44,3.95 0.49,3.6 1.1,7.15 1.62,10.74 29.57,214.69 124.87,422.27 286.93,590.11l4224.95 4375.07c406.11,420.53 1076.24,432.22 1496.76,26.12l0 0c420.53,-406.11 432.23,-1076.23 26.13,-1496.76z"/>
  </g>
 </g>
</svg>
